<?xml version="1.0" encoding="utf-8"?>
<!-- Generator: Adobe Illustrator 17.1.0, SVG Export Plug-In . SVG Version: 6.00 Build 0)  -->
<!DOCTYPE svg PUBLIC "-//W3C//DTD SVG 1.1//EN" "http://www.w3.org/Graphics/SVG/1.1/DTD/svg11.dtd">
<svg version="1.1" xmlns="http://www.w3.org/2000/svg" xmlns:xlink="http://www.w3.org/1999/xlink" x="0px" y="0px"
	 viewBox="0 0 1415 225.2" enable-background="new 0 0 1415 225.2" width="380" height="256" xml:space="preserve">
<g id="Layer_1">
	<g>
		<circle fill="#2CAAE1" cx="410.9" cy="112.6" r="110.8"/>
		<path fill="#FFFFFF" d="M460.7,81.7c-3.7,1.6-7.6,2.7-11.7,3.2c4.2-2.5,7.5-6.5,9-11.3c-4,2.3-8.3,4-13,5c-3.7-4-9-6.5-14.9-6.5
			c-11.3,0-20.4,9.2-20.4,20.4c0,1.6,0.2,3.2,0.5,4.7c-17-0.9-32.1-9-42.1-21.4c-1.8,3-2.8,6.5-2.8,10.3c0,7.1,3.6,13.4,9.1,17
			c-3.4-0.1-6.5-1-9.3-2.6c0,0.1,0,0.2,0,0.3c0,9.9,7,18.2,16.4,20c-1.7,0.5-3.5,0.7-5.4,0.7c-1.3,0-2.6-0.1-3.8-0.4
			c2.6,8.1,10.2,14,19.1,14.2c-7,5.5-15.8,8.8-25.4,8.8c-1.7,0-3.3-0.1-4.9-0.3c9,5.8,19.8,9.2,31.3,9.2c37.6,0,58.2-31.2,58.2-58.2
			c0-0.9,0-1.8-0.1-2.6C454.5,89.4,457.9,85.8,460.7,81.7z"/>
	</g>
	<g>
		<circle fill="#3C5A99" cx="114.2" cy="112.6" r="110.8"/>
		<path id="f" fill="#FFFFFF" d="M122,162.9V117h15.4l2.3-17.9H122V87.7c0-5.2,1.4-8.7,8.9-8.7l9.5,0V63c-1.6-0.2-7.3-0.7-13.8-0.7
			c-13.7,0-23,8.3-23,23.6v13.2H88.1V117h15.4v45.9H122z"/>
	</g>
	<g>
		<circle fill="#DF4B32" cx="707.5" cy="112.6" r="110.8"/>
		<g id="Rectangle_1_copy">
			<g>
				<path fill-rule="evenodd" clip-rule="evenodd" fill="#FFFFFF" d="M719.6,64.2h-28.1c-3.7,0-7.7,0.4-12,1.3
					c-4.3,1-8.5,3.2-12.5,6.5c-5.8,5.7-8.7,11.9-8.7,18.9c0,5.7,2.1,10.8,6.2,15.1c3.9,4.6,9.6,7,17.1,7.1c1.4,0,2.9-0.1,4.5-0.3
					c-0.3,0.7-0.6,1.5-0.9,2.4c-0.4,0.8-0.5,1.9-0.5,3.1c0,2.1,0.5,3.9,1.4,5.3c0.8,1.5,1.7,3,2.7,4.3c-3.3,0.1-7.4,0.5-12.4,1.2
					c-5,0.9-9.8,2.6-14.4,5.2c-4.1,2.4-6.9,5.2-8.4,8.5c-1.6,3.2-2.4,6.1-2.4,8.7c0,5.4,2.5,10,7.4,13.8c4.9,4.1,12.2,6.2,22.1,6.3
					c11.8-0.2,20.8-3,27-8.5c6-5.3,9-11.3,9-18.2c-0.1-4.8-1.2-8.7-3.3-11.7c-2.2-2.9-4.8-5.6-7.8-8.1l-4.8-3.9
					c-0.7-0.7-1.4-1.5-2.1-2.4c-0.9-1-1.3-2.2-1.3-3.7c0-1.5,0.4-2.8,1.3-4c0.7-1.1,1.5-2.1,2.3-3c1.5-1.3,2.9-2.6,4.2-3.8
					c1.2-1.2,2.3-2.6,3.3-4.1c2.1-3,3.2-7.1,3.3-12.1c0-2.8-0.3-5.2-0.9-7.2c-0.8-2.1-1.6-3.9-2.6-5.4c-1-1.6-2.1-3-3.1-4.1
					c-1.1-1.1-2.1-1.9-3-2.4h8.7L719.6,64.2z M704.1,141.3c2.3,2.7,3.5,5.8,3.5,9.4c0,4.4-1.7,8-5.1,10.8c-3.5,2.8-8.6,4.3-15.2,4.4
					c-7.4-0.1-13.2-1.7-17.5-5c-4.5-3.2-6.7-7.3-6.7-12.3c0-2.5,0.5-4.7,1.5-6.5c0.9-1.7,2-3.1,3.3-4.3c1.3-1.1,2.7-2,4-2.6
					c1.3-0.6,2.3-1,3-1.2c3-0.9,6-1.6,8.9-2c3-0.3,4.8-0.4,5.5-0.3c1.2,0,2.3,0,3.2,0.1C697.8,135.7,701.7,138.8,704.1,141.3z
					 M699.6,99.7c-0.3,1.9-1.1,3.7-2.3,5.5c-2.5,2.5-5.6,3.9-9.3,4c-2.9,0-5.5-0.9-7.8-2.7c-2.3-1.8-4.1-4-5.6-6.6
					c-3-5.5-4.5-10.8-4.5-16c-0.1-3.9,0.9-7.4,3.1-10.5c2.5-3,5.7-4.5,9.5-4.6c2.9,0.1,5.4,0.9,7.7,2.6c2.2,1.7,3.9,3.9,5.3,6.6
					c2.8,5.7,4.3,11.3,4.3,16.9C699.9,96.2,699.8,97.8,699.6,99.7z M763.5,108.3L763.5,108.3l-14.8-0.1V93.1H740v15.1h-14.9v8.4h0.1
					v0.3H740v14.8h8.7v-14.8h15.2v-8.7H763.5z"/>
			</g>
		</g>
	</g>
	<g>
		<circle fill="#CB2027" cx="1004.1" cy="112.6" r="110.8"/>
		<g>
			<path fill="#FFFFFF" d="M1004.1,60.1c-29,0-52.5,23.5-52.5,52.5c0,21.5,12.9,40,31.4,48.1c-0.1-3.7,0-8.1,0.9-12.1
				c1-4.3,6.8-28.6,6.8-28.6s-1.7-3.4-1.7-8.3c0-7.8,4.5-13.6,10.1-13.6c4.8,0,7.1,3.6,7.1,7.9c0,4.8-3.1,12-4.6,18.6
				c-1.3,5.6,2.8,10.1,8.3,10.1c10,0,16.7-12.8,16.7-27.9c0-11.5-7.8-20.1-21.9-20.1c-15.9,0-25.9,11.9-25.9,25.2
				c0,4.6,1.3,7.8,3.5,10.3c1,1.1,1.1,1.6,0.8,2.9c-0.3,1-0.8,3.3-1.1,4.2c-0.3,1.3-1.4,1.8-2.6,1.3c-7.3-3-10.8-11-10.8-20.1
				c0-14.9,12.6-32.8,37.5-32.8c20.1,0,33.3,14.5,33.3,30.1c0,20.6-11.5,36-28.3,36c-5.7,0-11-3.1-12.8-6.5c0,0-3,12.1-3.7,14.4
				c-1.1,4.1-3.3,8.1-5.3,11.3c4.7,1.4,9.7,2.2,14.9,2.2c29,0,52.5-23.5,52.5-52.5C1056.7,83.6,1033.1,60.1,1004.1,60.1z"/>
		</g>
	</g>
	<g>
		<circle fill="#FDB913" cx="1300.8" cy="112.6" r="110.8"/>
		<path fill="#FFFFFF" d="M1343.6,78.4H1258c-4.6,0-8.6,4-8.6,8.6v51.5c0,4.5,4,8.5,8.6,8.5h85.6c4.6,0,8.6-4,8.6-8.5V86.9
			C1352.2,82.4,1348.2,78.4,1343.6,78.4z M1281.2,120.9l-15.4,10.3c-0.3,0.2-0.6,0.3-0.9,0.3c-0.6,0-1.1-0.3-1.4-0.8
			c-0.5-0.8-0.3-1.9,0.5-2.4l15.4-10.3c0.8-0.5,1.8-0.3,2.4,0.5C1282.2,119.3,1282,120.4,1281.2,120.9z M1338.2,130.7
			c-0.3,0.5-0.9,0.8-1.4,0.8c-0.3,0-0.7-0.1-0.9-0.3l-15.4-10.3c-0.8-0.5-1-1.6-0.5-2.4c0.5-0.8,1.6-1,2.4-0.5l15.4,10.3
			C1338.5,128.8,1338.7,129.9,1338.2,130.7z M1337.7,98.6l-36,24c-0.3,0.2-0.6,0.3-0.9,0.3s-0.7-0.1-0.9-0.3l-36-24
			c-0.8-0.5-1-1.6-0.5-2.4c0.5-0.8,1.6-1,2.4-0.5l35,23.3l35-23.3c0.8-0.5,1.8-0.3,2.4,0.5C1338.7,97,1338.5,98.1,1337.7,98.6z"/>
	</g>
</g>
<g id="Layer_2">
</g>
</svg>
